<?xml version="1.0" encoding="UTF-8"?>
<!DOCTYPE svg PUBLIC "-//W3C//DTD SVG 1.1//EN" "http://www.w3.org/Graphics/SVG/1.1/DTD/svg11.dtd">
<svg version="1.1" xmlns="http://www.w3.org/2000/svg" xmlns:xlink="http://www.w3.org/1999/xlink" x="0" y="0" width="60" height="60" viewBox="0, 0, 60, 60">
  <g id="レイヤー_1" display="none">
    <path d="M27.5,27.5 L30,25 L32.5,27.5 L35,30 L30,35 L25,30 L27.5,27.5 z" fill="#EEEEEE"/>
    <path d="M27.5,7.5 L30,5 L32.5,7.5 L35,10 L30,15 L25,10 L27.5,7.5 z" fill="#EEEEEE"/>
    <path d="M27.5,47.5 L30,45 L32.5,47.5 L35,50 L30,55 L25,50 L27.5,47.5 z" fill="#EEEEEE"/>
    <path d="M7.5,27.5 L10,25 L12.5,27.5 L15,30 L10,35 L5,30 L7.5,27.5 z" fill="#EEEEEE"/>
    <path d="M47.5,27.5 L50,25 L52.5,27.5 L55,30 L50,35 L45,30 L47.5,27.5 z" fill="#EEEEEE"/>
  </g>
  <g id="レイヤー_1_のコピー" display="none">
    <path d="M27.5,27.5 L30,25 L32.5,27.5 L35,30 L30,35 L25,30 L27.5,27.5 z" fill="#333333"/>
    <path d="M27.5,7.5 L30,5 L32.5,7.5 L35,10 L30,15 L25,10 L27.5,7.5 z" fill="#333333"/>
    <path d="M27.5,47.5 L30,45 L32.5,47.5 L35,50 L30,55 L25,50 L27.5,47.5 z" fill="#333333"/>
    <path d="M7.5,27.5 L10,25 L12.5,27.5 L15,30 L10,35 L5,30 L7.5,27.5 z" fill="#333333"/>
    <path d="M47.5,27.5 L50,25 L52.5,27.5 L55,30 L50,35 L45,30 L47.5,27.5 z" fill="#333333"/>
  </g>
  <g id="レイヤー_1_のコピー_のコピー" display="none">
    <path d="M5,8.536 L5,5 L8.536,5 L12.071,5 L12.071,12.071 L5,12.071 L5,8.536 z" fill="#00CC00"/>
    <path d="M47.929,51.464 L47.929,47.929 L51.464,47.929 L55,47.929 L55,55 L47.929,55 L47.929,51.464 z" fill="#00CC00"/>
    <path d="M5,51.464 L5,47.929 L8.536,47.929 L12.071,47.929 L12.071,55 L5,55 L5,51.464 z" fill="#00CC00"/>
    <path d="M47.929,8.536 L47.929,5 L51.464,5 L55,5 L55,12.071 L47.929,12.071 L47.929,8.536 z" fill="#00CC00"/>
  </g>
  <g id="レイヤー_1_のコピー_のコピー">
    <path d="M27.5,27.5 L30,25 L32.5,27.5 L35,30 L30,35 L25,30 L27.5,27.5 z" fill="#CC0000"/>
    <path d="M27.5,7.5 L30,5 L32.5,7.5 L35,10 L30,15 L25,10 L27.5,7.5 z" fill="#CC0000"/>
    <path d="M27.5,47.5 L30,45 L32.5,47.5 L35,50 L30,55 L25,50 L27.5,47.5 z" fill="#CC0000"/>
    <path d="M7.5,27.5 L10,25 L12.5,27.5 L15,30 L10,35 L5,30 L7.5,27.5 z" fill="#CC0000"/>
    <path d="M47.5,27.5 L50,25 L52.5,27.5 L55,30 L50,35 L45,30 L47.5,27.5 z" fill="#CC0000"/>
    <path d="M17.5,27.5 L20,25 L22.5,27.5 L25,30 L20,35 L15,30 L17.5,27.5 z" fill="#CC0000"/>
    <path d="M37.5,27.5 L40,25 L42.5,27.5 L45,30 L40,35 L35,30 L37.5,27.5 z" fill="#CC0000"/>
    <path d="M27.5,17.5 L30,15 L32.5,17.5 L35,20 L30,25 L25,20 L27.5,17.5 z" fill="#CC0000"/>
    <path d="M27.5,37.5 L30,35 L32.5,37.5 L35,40 L30,45 L25,40 L27.5,37.5 z" fill="#CC0000"/>
  </g>
  <g id="レイヤー_1のコピー_3" display="none">
    <path d="M37.5,27.5 C38.881,27.5 40,28.619 40,30 C40,31.381 38.881,32.5 37.5,32.5 C36.119,32.5 35,31.381 35,30 C35,28.619 36.119,27.5 37.5,27.5 z M37.5,28.5 C36.672,28.5 36,29.172 36,30 C36,30.828 36.672,31.5 37.5,31.5 C38.328,31.5 39,30.828 39,30 C39,29.172 38.328,28.5 37.5,28.5 z" fill="#1CC4FD"/>
    <path d="M22.5,32.5 C21.119,32.5 20,31.381 20,30 C20,28.619 21.119,27.5 22.5,27.5 C23.881,27.5 25,28.619 25,30 C25,31.381 23.881,32.5 22.5,32.5 z" fill="#1CC4FD"/>
    <g>
      <path d="M30,32 L28,31 L26,30 L28,29 L30,28 L30,30 z" fill="#999999"/>
      <path d="M30,28 L30,32 L28,31 L26,30 L28,29 L30,28 z M29,29.618 L28.236,30 L29,30.382 L29,29.618 z" fill="#1CC4FD"/>
    </g>
    <g>
      <path d="M30,28 L32,29 L34,30 L32,31 L30,32 L30,30 z" fill="#999999"/>
      <path d="M30,28 L32,29 L34,30 L32,31 L30,32 L30,28 z M31,29.618 L31,30.382 L31.764,30 L31,29.618 z" fill="#1CC4FD"/>
    </g>
  </g>
</svg>
