<?xml version="1.0" encoding="UTF-8"?>
<!DOCTYPE svg PUBLIC "-//W3C//DTD SVG 1.1//EN" "http://www.w3.org/Graphics/SVG/1.1/DTD/svg11.dtd">
<svg version="1.1" xmlns="http://www.w3.org/2000/svg" xmlns:xlink="http://www.w3.org/1999/xlink" x="0" y="0" width="60" height="60" viewBox="0, 0, 60, 60">
  <g id="レイヤー_1" display="none">
    <path d="M27.5,27.5 L30,25 L32.5,27.5 L35,30 L30,35 L25,30 L27.5,27.5 z" fill="#EEEEEE"/>
    <path d="M27.5,7.5 L30,5 L32.5,7.5 L35,10 L30,15 L25,10 L27.5,7.5 z" fill="#EEEEEE"/>
    <path d="M27.5,47.5 L30,45 L32.5,47.5 L35,50 L30,55 L25,50 L27.5,47.5 z" fill="#EEEEEE"/>
    <path d="M7.5,27.5 L10,25 L12.5,27.5 L15,30 L10,35 L5,30 L7.5,27.5 z" fill="#EEEEEE"/>
    <path d="M47.5,27.5 L50,25 L52.5,27.5 L55,30 L50,35 L45,30 L47.5,27.5 z" fill="#EEEEEE"/>
  </g>
  <g id="レイヤー_1_のコピー" display="none">
    <path d="M27.5,27.5 L30,25 L32.5,27.5 L35,30 L30,35 L25,30 L27.5,27.5 z" fill="#333333"/>
    <path d="M27.5,7.5 L30,5 L32.5,7.5 L35,10 L30,15 L25,10 L27.5,7.5 z" fill="#333333"/>
    <path d="M27.5,47.5 L30,45 L32.5,47.5 L35,50 L30,55 L25,50 L27.5,47.5 z" fill="#333333"/>
    <path d="M7.5,27.5 L10,25 L12.5,27.5 L15,30 L10,35 L5,30 L7.5,27.5 z" fill="#333333"/>
    <path d="M47.5,27.5 L50,25 L52.5,27.5 L55,30 L50,35 L45,30 L47.5,27.5 z" fill="#333333"/>
  </g>
  <g id="レイヤー_1_のコピー_のコピー" display="none">
    <path d="M5,8.536 L5,5 L8.536,5 L12.071,5 L12.071,12.071 L5,12.071 L5,8.536 z" fill="#00CC00"/>
    <path d="M47.929,51.464 L47.929,47.929 L51.464,47.929 L55,47.929 L55,55 L47.929,55 L47.929,51.464 z" fill="#00CC00"/>
    <path d="M5,51.464 L5,47.929 L8.536,47.929 L12.071,47.929 L12.071,55 L5,55 L5,51.464 z" fill="#00CC00"/>
    <path d="M47.929,8.536 L47.929,5 L51.464,5 L55,5 L55,12.071 L47.929,12.071 L47.929,8.536 z" fill="#00CC00"/>
  </g>
  <g id="レイヤー_1_のコピー_のコピー" display="none">
    <path d="M27.5,27.5 L30,25 L32.5,27.5 L35,30 L30,35 L25,30 L27.5,27.5 z" fill="#CC0000"/>
    <path d="M27.5,7.5 L30,5 L32.5,7.5 L35,10 L30,15 L25,10 L27.5,7.5 z" fill="#CC0000"/>
    <path d="M27.5,47.5 L30,45 L32.5,47.5 L35,50 L30,55 L25,50 L27.5,47.5 z" fill="#CC0000"/>
    <path d="M7.5,27.5 L10,25 L12.5,27.5 L15,30 L10,35 L5,30 L7.5,27.5 z" fill="#CC0000"/>
    <path d="M47.5,27.5 L50,25 L52.5,27.5 L55,30 L50,35 L45,30 L47.5,27.5 z" fill="#CC0000"/>
    <path d="M17.5,27.5 L20,25 L22.5,27.5 L25,30 L20,35 L15,30 L17.5,27.5 z" fill="#CC0000"/>
    <path d="M37.5,27.5 L40,25 L42.5,27.5 L45,30 L40,35 L35,30 L37.5,27.5 z" fill="#CC0000"/>
    <path d="M27.5,17.5 L30,15 L32.5,17.5 L35,20 L30,25 L25,20 L27.5,17.5 z" fill="#CC0000"/>
    <path d="M27.5,37.5 L30,35 L32.5,37.5 L35,40 L30,45 L25,40 L27.5,37.5 z" fill="#CC0000"/>
  </g>
  <g id="レイヤー_1のコピー_3">
    <path d="M45,25 C47.761,25 50,27.239 50,30 C50,32.761 47.761,35 45,35 C42.239,35 40,32.761 40,30 C40,27.239 42.239,25 45,25 z M45,27 C43.343,27 42,28.343 42,30 C42,31.657 43.343,33 45,33 C46.657,33 48,31.657 48,30 C48,28.343 46.657,27 45,27 z" fill="#CCBB00"/>
    <path d="M14.875,35 C12.114,35 9.875,32.761 9.875,30 C9.875,27.239 12.114,25 14.875,25 C17.636,25 19.875,27.239 19.875,30 C19.875,32.761 17.636,35 14.875,35 z" fill="#CCBB00"/>
    <path d="M24,30 L30,26 L36,30 L30,34 z" fill="#CCBB00"/>
  </g>
</svg>
